<svg xmlns="http://www.w3.org/2000/svg" data-name="Layer 1" viewBox="0 0 100 125" x="0px" y="0px"><title>Artboard 3</title><path d="M84,49.37h7.64a10.36,10.36,0,0,0-10.34-9.84H70.26a11.3,11.3,0,0,1,3.22,2.18,3.74,3.74,0,0,1,.34.35c.12.12.24.25.34.37a11.31,11.31,0,0,1,0,14.89l-.34.37c-.11.12-.23.23-.35.35a11.06,11.06,0,0,1-3.22,2.17H81.33a10.36,10.36,0,0,0,10.34-9.84H84Z"/><polygon points="76.96 61.21 76.96 65.59 82.55 65.59 82.55 61.21 81.33 61.21 76.96 61.21"/><polygon points="82.55 38.53 82.55 34.16 76.96 34.16 76.96 38.53 81.33 38.53 82.55 38.53"/><path d="M73.13,57h0l.34-.38a10.32,10.32,0,0,0,0-13.42c-.11-.13-.22-.26-.34-.38s-.23-.24-.35-.35a10.35,10.35,0,0,0-6.68-2.89h-1A10.35,10.35,0,0,0,57.92,43h7.69a4.07,4.07,0,0,1,.5,0,6.8,6.8,0,0,1,4.72,2.57,3.92,3.92,0,0,1,.36.47c.12.18.23.36.34.55a6.93,6.93,0,0,1,0,6.54c-.11.19-.22.38-.34.56s-.23.32-.35.47a6.83,6.83,0,0,1-4.73,2.56,4.07,4.07,0,0,1-.5,0H57.92a10.35,10.35,0,0,0,7.19,3.43h1a10.37,10.37,0,0,0,6.67-2.88Z"/><path d="M63,55.77h2.15v0a1.89,1.89,0,0,0,.34,0h.16a4.07,4.07,0,0,0,.5,0A5.89,5.89,0,0,0,70.44,53a4.82,4.82,0,0,0,.35-.63,5.25,5.25,0,0,0,.33-.89,5.82,5.82,0,0,0,.23-1.62,5.7,5.7,0,0,0-.23-1.61,4.27,4.27,0,0,0-.34-.9,3.83,3.83,0,0,0-.34-.63A5.89,5.89,0,0,0,66.11,44a4.07,4.07,0,0,0-.5,0h-.16a1.88,1.88,0,0,0-.34,0v0H56.89a1.74,1.74,0,0,0,.11.18,11.26,11.26,0,0,1,1.55,5.59v.39A11.36,11.36,0,0,1,57,55.59l-.1.18H63Z"/><path d="M56.41,45.16c-.09-.18-.19-.36-.29-.53s-.19-.32-.3-.48L55.69,44a5.89,5.89,0,0,0-.37-.5c-.13-.17-.27-.34-.42-.5a10.31,10.31,0,0,0-7.69-3.44H20.54a11.33,11.33,0,0,1,0,20.68H47.21a10.31,10.31,0,0,0,7.69-3.44,6.52,6.52,0,0,0,.42-.5,5.87,5.87,0,0,0,.37-.5l.13-.18q.16-.24.3-.48c.1-.17.2-.35.29-.53a10.3,10.3,0,0,0,0-9.42Z"/><polygon points="30.45 65.9 26.58 65.9 26.58 90.48 42.48 90.48 42.48 65.9 38.61 65.9 30.45 65.9"/><polygon points="38.61 34.1 42.48 34.1 42.48 9.52 26.58 9.52 26.58 34.1 30.45 34.1 38.61 34.1"/><rect x="31.45" y="61.21" width="6.16" height="3.69"/><rect x="31.45" y="35.1" width="6.16" height="3.43"/><path d="M26.24,49.87a10.36,10.36,0,0,0-9.85-10.33h-1a10.33,10.33,0,0,0-7.57,3.88A6.16,6.16,0,0,1,9.75,43v0H16a1.3,1.3,0,0,1,.34,0,6.89,6.89,0,0,1,0,13.74,1.3,1.3,0,0,1-.34,0H9.75v0a6.16,6.16,0,0,1-1.93-.42,10.33,10.33,0,0,0,7.57,3.88h1A10.36,10.36,0,0,0,26.24,49.87Z"/><path d="M16,53.6c0,.08-.1.16-.16.24a6,6,0,0,1-.5.63,6.93,6.93,0,0,1-1.18,1,2.59,2.59,0,0,1-.39.25h1.57v0l.5,0h.5a5.89,5.89,0,0,0,0-11.74A1.88,1.88,0,0,0,16,44H13.82a3.74,3.74,0,0,1,.39.25,7,7,0,0,1,1.18,1.06,4.93,4.93,0,0,1,.5.63,1.68,1.68,0,0,1,.16.24,4.19,4.19,0,0,1,.34.58,6.89,6.89,0,0,1,0,6.29A4.19,4.19,0,0,1,16,53.6Z"/><path d="M10.25,55.77l.5,0a5.83,5.83,0,0,0,1.19-.23,5.84,5.84,0,0,0,.59-.2,4.54,4.54,0,0,0,.54-.27,5.87,5.87,0,0,0,2.32-2.29,5.5,5.5,0,0,0,.5-1.17,4.89,4.89,0,0,0,.16-.66,5.67,5.67,0,0,0,0-2.12,4.75,4.75,0,0,0-.16-.65,5.37,5.37,0,0,0-.5-1.18,5.94,5.94,0,0,0-2.32-2.29,5,5,0,0,0-.52-.26h0q-.3-.12-.6-.21A5.21,5.21,0,0,0,10.75,44a4.18,4.18,0,0,0-1,0,5.64,5.64,0,0,0-3.07,1.19,5.39,5.39,0,0,0-1,.9,5.56,5.56,0,0,0-1,1.66,5.75,5.75,0,0,0-.4,2.12A5.86,5.86,0,0,0,4.75,52a5.67,5.67,0,0,0,1,1.64,5,5,0,0,0,1,.9,5.73,5.73,0,0,0,3.07,1.2Z"/><rect x="91.67" y="49.37" width="3.98" height="1"/></svg>