<svg xmlns="http://www.w3.org/2000/svg" xmlns:xlink="http://www.w3.org/1999/xlink" version="1.1" x="0px" y="0px" viewBox="0 0 100 125" enable-background="new 0 0 100 100" xml:space="preserve"><polygon points="53.771,40.754 50.773,40.754 50.773,46.053 55.297,46.053 "/><polygon points="42.145,53.351 48.773,53.351 48.773,48.053 43.652,48.053 "/><polygon points="44.221,46.053 48.773,46.053 48.773,40.754 45.728,40.754 "/><polygon points="50.773,48.053 50.773,53.351 57.397,53.351 55.872,48.053 "/><polygon points="67.068,51.418 70.296,51.418 70.296,44.108 67.636,44.108 "/><polygon points="29.698,51.418 32.927,51.418 32.927,44.108 30.267,44.108 "/><path d="M69.3,32.427c-6.207-3.027-12.938-3.988-19.059-3.976v-0.005c-0.153-0.003-0.312,0.004-0.467,0.002  c-0.154,0.002-0.314-0.006-0.467-0.002v0.005c-6.122-0.013-12.851,0.949-19.059,3.976H69.3z"/><path d="M49.773,60.046c-2.392,0-4.337,1.945-4.337,4.337s1.945,4.337,4.337,4.337s4.337-1.945,4.337-4.337  S52.165,60.046,49.773,60.046z"/><path d="M43.523,63.383c0.482-3.02,3.097-5.337,6.25-5.337s5.769,2.317,6.25,5.337h32.278L71.78,34.427H27.767L11.246,63.383H43.523  z M65.713,43.031c0.043-0.551,0.525-0.958,1.074-0.92c0.057,0.004,0.111,0.013,0.164,0.026c0.077-0.019,0.158-0.029,0.241-0.029  h4.104c0.553,0,1,0.448,1,1v9.31c0,0.553-0.447,1-1,1h-5.309c-0.278,0-0.545-0.116-0.734-0.321  c-0.188-0.204-0.284-0.479-0.263-0.756L65.713,43.031z M39.859,54.077l4.152-14.596c0.123-0.43,0.515-0.727,0.962-0.727h9.552  c0.445,0,0.838,0.295,0.961,0.724l4.148,14.413c0.071,0.138,0.111,0.294,0.111,0.46c0,0.553-0.447,1-1,1c-0.006,0-0.013,0-0.02,0  H40.821c-0.313,0-0.609-0.147-0.798-0.397S39.773,54.379,39.859,54.077z M28.344,43.03c0.043-0.551,0.512-0.969,1.075-0.919  c0.056,0.004,0.11,0.013,0.163,0.026c0.077-0.019,0.158-0.029,0.241-0.029h4.104c0.552,0,1,0.448,1,1v9.31c0,0.553-0.448,1-1,1  h-5.31c-0.279,0-0.545-0.116-0.734-0.321c-0.189-0.204-0.285-0.479-0.263-0.756L28.344,43.03z"/><g><path d="M92.157,72.862l-0.811-4.143l-1.904-3.337H56.023c-0.481,3.02-3.097,5.337-6.25,5.337s-5.768-2.317-6.25-5.337H10.104   L8.201,68.72v4.101C13.526,74.603,50.818,86.056,92.157,72.862z"/><path d="M50.857,81.128c-21.636,0-37.997-4.705-42.657-6.203v3.137c0,0,29.999,17.232,85.014,0.208l-0.672-3.436   C77.713,79.538,63.398,81.128,50.857,81.128z"/></g></svg>