<?xml version="1.0" encoding="utf-8"?>
<!-- Svg Vector Icons : http://www.onlinewebfonts.com/icon -->
<!DOCTYPE svg PUBLIC "-//W3C//DTD SVG 1.1//EN" "http://www.w3.org/Graphics/SVG/1.1/DTD/svg11.dtd">
<svg version="1.1" xmlns="http://www.w3.org/2000/svg" xmlns:xlink="http://www.w3.org/1999/xlink" x="0px" y="0px" viewBox="0 0 1000 1000" enable-background="new 0 0 1000 1000" xml:space="preserve">
<metadata> Svg Vector Icons : http://www.onlinewebfonts.com/icon </metadata>
<g><path d="M806.5,711l-41.6,159.4c-1.3,5-4.9,9.1-9.7,10.9c-1.8,0.7-3.7,1-5.6,1c-3.1,0-6.2-0.9-8.8-2.7l-84.9-57.5c-4.7-3.2-7.4-8.6-7-14.3l2.4-41.3c-0.8,1.5-1.6,3.1-2.5,4.5c-15.5,25.9-33.3,47.5-52.2,64.5l-16.7-28c9.8-9.4,19.3-20.5,28.2-32.8H392.1c9,12.4,18.5,23.6,28.4,33.1l-16.7,28c-19-17-36.8-38.7-52.5-64.7c-0.9-1.5-1.7-3.1-2.5-4.6l2.4,41.4c0.3,5.7-2.3,11.1-7,14.3l-84.9,57.5c-2.6,1.8-5.7,2.7-8.8,2.7c-1.9,0-3.8-0.3-5.6-1c-4.8-1.8-8.4-5.9-9.7-10.9L193.5,711c-1.1-4.1-0.5-8.4,1.6-12.1l91-161.7c1.8-3.2,4.7-5.6,8-7c-1.3-36.9,0-73.1,4.3-105.5C337.3,131.1,484,20,490.3,13.3c2-2.1,4.5-3.3,7.1-3.3h5.4c2.6,0,5,1.2,7.1,3.3c6.2,6.7,153,117.8,191.9,411.4c4.3,32.5,5.7,68.6,4.3,105.6c3.3,1.3,6.1,3.7,7.9,6.9l91,161.7C807,702.6,807.6,706.9,806.5,711z M314.9,678.7c-8-30.5-13.7-63.6-17.2-97.2l-71.8,127.6l34.3,131.3l58.9-39.9l-6.5-112.7C312.3,684.4,313.3,681.4,314.9,678.7z M500,47.6c-32.9,30.9-88.6,96.2-129.2,209.1c36.8,7.1,77.4,11.3,121.2,11.3c47.9,0,93.8-5.2,136-14.5C587.6,142.6,532.6,78.3,500,47.6z M670.2,428.9c-7.3-55.1-18.5-103.4-31.9-145.7c-44.6,10.2-94,16-146.2,16c-46.5,0-90.6-4.7-131.2-12.8c-13,41.6-23.9,88.8-31,142.6c-14.8,111.8,6.3,253.7,48,324.2h244.4C663.9,682.6,685,540.7,670.2,428.9z M702.4,581.6c-3.5,33.6-9.3,66.6-17.2,97.1c1.6,2.7,2.6,5.7,2.4,9.1L681,800.5l58.9,39.9l34.3-131.3L702.4,581.6z M451.7,817.7c5.9,0,10.8,4.8,10.8,10.8v107.7c0,5.9-4.8,10.8-10.8,10.8c-5.9,0-10.8-4.8-10.8-10.8V828.5C441,822.5,445.8,817.7,451.7,817.7z M505.6,817.7c5.9,0,10.8,4.8,10.8,10.8v64.6c0,5.9-4.8,10.8-10.8,10.8s-10.8-4.8-10.8-10.8v-64.6C494.8,822.5,499.6,817.7,505.6,817.7z M559.4,817.7c5.9,0,10.8,4.8,10.8,10.8v150.7c0,5.9-4.8,10.8-10.8,10.8c-5.9,0-10.8-4.8-10.8-10.8V828.5C548.6,822.5,553.5,817.7,559.4,817.7z"/><path d="M500,620.6c-22,0-42.2-13.7-56.9-38.6c-13.7-23.1-21.2-53.6-21.2-85.9c0-32.3,7.5-62.8,21.2-85.9c14.7-24.9,34.9-38.6,56.9-38.6c22,0,42.2,13.7,56.9,38.6c13.7,23.1,21.2,53.7,21.2,85.9s-7.5,62.8-21.2,85.9C542.2,606.9,522,620.6,500,620.6z M500,393.1c-30.6,0-56.5,47.2-56.5,103c0,55.8,25.9,103,56.5,103c30.6,0,56.5-47.2,56.5-103C556.5,440.2,530.6,393.1,500,393.1z"/></g>
</svg>