<svg xmlns:dc="http://purl.org/dc/elements/1.1/" xmlns:cc="http://creativecommons.org/ns#" xmlns:rdf="http://www.w3.org/1999/02/22-rdf-syntax-ns#" xmlns:svg="http://www.w3.org/2000/svg" xmlns="http://www.w3.org/2000/svg" xmlns:sodipodi="http://sodipodi.sourceforge.net/DTD/sodipodi-0.dtd" xmlns:inkscape="http://www.inkscape.org/namespaces/inkscape" viewBox="0 0 25.703638 25.3924275" version="1.1" x="0px" y="0px"><g transform="translate(-144.45083,-171.9897)"><path style="" d="m 153.24308,175.30266 c -0.16638,0.0961 -0.24525,0.2688 -0.17685,0.38727 l 0.20597,0.35675 -0.45049,0.26008 -0.052,-0.0901 c -0.096,-0.16638 -0.32674,-0.21179 -0.51726,-0.1018 l -2.49555,1.44081 c -0.19052,0.10999 -0.26653,0.33248 -0.17047,0.49886 l 0.052,0.0901 -0.51233,0.29579 c -0.0822,0.0475 -0.0711,0.21963 0.025,0.386 l 0.52013,0.90089 c 0.096,0.16638 0.23958,0.26212 0.32178,0.21466 l 0.51233,-0.2958 0.12138,0.21023 c 0.096,0.16638 0.32674,0.21179 0.51726,0.1018 l 2.49555,-1.44081 c 0.19052,-0.11 0.26653,-0.33248 0.17047,-0.49886 l -0.12137,-0.21023 0.45049,-0.26009 1.59517,2.76292 -0.0856,0.0494 c -0.16886,0.0975 -0.22752,0.30996 -0.13146,0.47634 l 0.0173,0.03 -3.39778,1.96171 c -0.15894,0.0918 -0.25197,0.24413 -0.25005,0.38463 l -0.36244,0.20925 -0.0693,-0.12013 c -0.0961,-0.16638 -0.32675,-0.21179 -0.51726,-0.1018 l -0.49616,0.28646 -0.47833,-0.82847 1.02929,-0.59426 c 0.0953,-0.055 0.12766,-0.17594 0.0727,-0.2712 l -0.14821,-0.2567 c -0.055,-0.0953 -0.17599,-0.12775 -0.27125,-0.0728 l -1.14941,0.66362 0.17816,0.30859 c 0.055,0.0953 0.0225,0.21625 -0.0727,0.27125 l -0.0164,0.009 c -0.0953,0.055 -0.2162,0.0226 -0.2712,-0.0727 l -0.17817,-0.30859 -1.20957,0.69835 c -0.0953,0.055 -0.12761,0.17603 -0.0726,0.27129 l 0.1482,0.25669 c 0.055,0.0953 0.17594,0.12767 0.2712,0.0727 l 1.02938,-0.59431 0.47832,0.82848 -0.97838,0.56486 c -0.19051,0.10999 -0.26652,0.33248 -0.17047,0.49886 l 0.0694,0.12013 -0.39042,0.22541 -0.0694,-0.12013 c -0.0961,-0.16637 -0.32675,-0.21179 -0.51726,-0.10179 l -0.67636,0.39049 -0.46098,-0.79844 1.02929,-0.59426 c 0.0952,-0.055 0.12766,-0.17594 0.0727,-0.2712 l -0.1482,-0.2567 c -0.055,-0.0953 -0.176,-0.12775 -0.27125,-0.0728 l -1.14942,0.66362 0.17817,0.30859 c 0.055,0.0953 0.0225,0.21625 -0.0728,0.27125 l -0.0164,0.009 c -0.0953,0.055 -0.2162,0.0226 -0.2712,-0.0727 l -0.17816,-0.30859 -1.20957,0.69835 c -0.0953,0.055 -0.12761,0.17603 -0.0726,0.27129 l 0.14821,0.2567 c 0.055,0.0953 0.17594,0.12766 0.2712,0.0727 l 1.02937,-0.59431 0.46098,0.79845 -0.79817,0.46082 c -0.19052,0.11 -0.26653,0.33249 -0.17047,0.49886 l 0.0694,0.12013 -0.19663,0.11353 c -0.19051,0.10999 -0.26662,0.33253 -0.17056,0.49891 l 0.52013,0.90089 c 0.0961,0.16637 0.32683,0.21174 0.51735,0.10174 l 0.19663,-0.11352 0.10404,0.18019 c 0.096,0.16638 0.32674,0.21179 0.51726,0.1018 l 0.73731,-0.42569 0.4855,0.84092 -1.02938,0.59431 c -0.0952,0.055 -0.12766,0.17594 -0.0727,0.2712 l 0.1482,0.25669 c 0.055,0.0953 0.176,0.12776 0.27125,0.0728 l 1.20957,-0.69834 -0.17816,-0.3086 c -0.055,-0.0952 -0.0226,-0.2162 0.0727,-0.27119 l 0.0164,-0.009 c 0.0953,-0.055 0.21629,-0.0226 0.27129,0.0726 l 0.17817,0.30859 1.14941,-0.66361 c 0.0953,-0.055 0.12761,-0.17604 0.0726,-0.27129 l -0.14821,-0.2567 c -0.055,-0.0953 -0.17594,-0.12766 -0.2712,-0.0727 l -1.02928,0.59426 -0.4855,-0.84091 0.73722,-0.42564 c 0.19051,-0.10999 0.26653,-0.33248 0.17047,-0.49886 l -0.10404,-0.18019 0.39043,-0.22541 0.10403,0.18019 c 0.0961,0.16638 0.32675,0.21179 0.51726,0.1018 l 0.91751,-0.52973 0.50284,0.87095 -1.02937,0.59431 c -0.0953,0.055 -0.12767,0.17594 -0.0727,0.2712 l 0.14821,0.2567 c 0.055,0.0953 0.17599,0.12775 0.27125,0.0728 l 1.20957,-0.69835 -0.17817,-0.30859 c -0.055,-0.0953 -0.0226,-0.2162 0.0727,-0.2712 l 0.0164,-0.009 c 0.0952,-0.055 0.21629,-0.0226 0.27128,0.0726 l 0.17817,0.30859 1.14942,-0.66362 c 0.0952,-0.055 0.12761,-0.17603 0.0726,-0.27128 l -0.1482,-0.2567 c -0.055,-0.0953 -0.17595,-0.12767 -0.2712,-0.0727 l -1.02929,0.59426 -0.50284,-0.87095 0.55703,-0.3216 c 0.19051,-0.10999 0.26652,-0.33248 0.17047,-0.49886 l -0.10404,-0.18019 0.33036,-0.19074 0.0347,0.0601 c 0.0961,0.16637 0.34559,0.20091 0.55955,0.0774 l 1.17545,-0.67865 0.24276,0.42046 -0.1802,0.10403 2.35805,4.08427 0.78085,-0.45082 -2.35805,-4.08427 -0.12013,0.0694 -0.24275,-0.42046 1.75576,-1.01369 c 0.10915,0.0997 0.27532,0.12135 0.41228,0.0423 l 0.0856,-0.0494 0.24275,0.42046 -0.005,0.003 c -0.14721,0.085 -0.18843,0.28739 -0.0924,0.45377 l 1.14435,1.98206 c 0.0961,0.16638 0.29194,0.23189 0.43916,0.14689 l 0.005,-0.003 0.27743,0.48052 -0.005,0.003 c -0.14722,0.085 -0.18843,0.2874 -0.0924,0.45377 l 0.33093,0.5732 c -0.15896,0.11663 -0.21706,0.31761 -0.12847,0.47105 l 0.4855,0.84092 -0.3603,0.20802 -0.10881,-0.18846 c -0.055,-0.0953 -0.17603,-0.12761 -0.27129,-0.0726 l -3.86053,2.22888 c -0.0953,0.055 -0.12766,0.17595 -0.0727,0.2712 l 0.21285,0.36866 4.02429,-2.32343 0.13871,0.24026 -4.02429,2.32343 0.24753,0.42872 c 0.055,0.0953 0.17594,0.12766 0.27119,0.0727 l 3.86054,-2.22888 c 0.0952,-0.055 0.12775,-0.17599 0.0728,-0.27125 l -0.1088,-0.18846 0.3603,-0.20802 0.27743,0.48052 c 0.0961,0.16637 0.32678,0.21165 0.5173,0.10166 l 0.22666,-0.13087 0.0847,0.14661 c 0.0684,0.11846 0.25738,0.13644 0.42375,0.0404 l 0.90098,-0.52018 c 0.16638,-0.0961 0.2453,-0.26871 0.1769,-0.38718 l -0.0846,-0.14661 0.22666,-0.13087 c 0.19052,-0.10999 0.26658,-0.33239 0.17053,-0.49876 l -0.26009,-0.45049 0.39042,-0.22542 0.10881,0.18846 c 0.055,0.0953 0.17603,0.12762 0.27129,0.0726 l 3.86053,-2.22888 c 0.0952,-0.055 0.12766,-0.17594 0.0727,-0.2712 l -0.24753,-0.42872 -4.02429,2.32342 -0.13871,-0.24026 4.02429,-2.32342 -0.21285,-0.36866 c -0.055,-0.0952 -0.17594,-0.12766 -0.27119,-0.0727 l -3.86054,2.22887 c -0.0952,0.055 -0.12775,0.176 -0.0727,0.27125 l 0.1088,0.18846 -0.39042,0.22542 -0.50284,-0.87095 c -0.0886,-0.15344 -0.29161,-0.20367 -0.47209,-0.12432 l -0.33094,-0.5732 c -0.0961,-0.16637 -0.29194,-0.23188 -0.43916,-0.14689 l -0.005,0.003 -0.27743,-0.48052 0.005,-0.003 c 0.14722,-0.085 0.18843,-0.28739 0.0924,-0.45377 l -1.14435,-1.98206 c -0.096,-0.16638 -0.29194,-0.23189 -0.43915,-0.14689 l -0.005,0.003 -0.24275,-0.42046 0.14563,-0.0841 c 0.13696,-0.0791 0.20132,-0.23379 0.16953,-0.37818 l 1.72564,-0.9963 0.26009,0.45049 -0.1802,0.10404 2.35806,4.08427 0.78085,-0.45083 -2.35806,-4.08427 -0.12013,0.0694 -0.26009,-0.45049 1.23552,-0.71333 c 0.21396,-0.12353 0.30891,-0.35695 0.21285,-0.52332 l -0.0347,-0.0601 0.25528,-0.14738 0.10404,0.18019 c 0.096,0.16638 0.32674,0.21179 0.51726,0.1018 l 0.60545,-0.34956 0.46396,0.8036 -1.02938,0.59431 c -0.0953,0.055 -0.12766,0.17594 -0.0727,0.2712 l 0.14821,0.2567 c 0.055,0.0952 0.17599,0.12775 0.27125,0.0728 l 1.20957,-0.69834 -0.17817,-0.3086 c -0.055,-0.0952 -0.0226,-0.2162 0.0727,-0.27119 l 0.0164,-0.009 c 0.0953,-0.055 0.21629,-0.0226 0.27129,0.0726 l 0.17816,0.30859 1.14942,-0.66361 c 0.0953,-0.055 0.12761,-0.17604 0.0726,-0.27129 l -0.1482,-0.2567 c -0.055,-0.0953 -0.17594,-0.12766 -0.2712,-0.0727 l -1.02928,0.59426 -0.46396,-0.8036 0.86908,-0.50176 c 0.19051,-0.10999 0.26653,-0.33248 0.17047,-0.49886 l -0.10404,-0.18019 0.39043,-0.22542 0.10404,0.1802 c 0.096,0.16638 0.32674,0.21179 0.51726,0.1018 l 0.78564,-0.4536 0.4813,0.83363 -1.02938,0.59431 c -0.0952,0.055 -0.12766,0.17594 -0.0727,0.2712 l 0.1482,0.2567 c 0.055,0.0953 0.176,0.12775 0.27125,0.0728 l 1.20957,-0.69834 -0.17816,-0.30859 c -0.055,-0.0953 -0.0226,-0.2162 0.0727,-0.2712 l 0.0164,-0.009 c 0.0952,-0.055 0.21629,-0.0226 0.27128,0.0726 l 0.17817,0.30859 1.14941,-0.66362 c 0.0953,-0.055 0.12762,-0.17603 0.0726,-0.27129 l -0.14821,-0.2567 c -0.055,-0.0952 -0.17594,-0.12766 -0.27119,-0.0727 l -1.02929,0.59425 -0.4813,-0.83362 0.68889,-0.39773 c 0.19051,-0.11 0.26653,-0.33248 0.17047,-0.49886 l -0.10403,-0.1802 0.18161,-0.10485 c 0.19052,-0.11 0.26653,-0.33249 0.17048,-0.49886 l -0.52014,-0.90089 c -0.096,-0.16638 -0.32674,-0.21179 -0.51725,-0.1018 l -0.18162,0.10486 -0.0694,-0.12013 c -0.0961,-0.16638 -0.32675,-0.21179 -0.51726,-0.1018 l -0.62802,0.36259 -0.45677,-0.79116 1.02928,-0.59426 c 0.0953,-0.055 0.12767,-0.17594 0.0727,-0.27119 l -0.14821,-0.2567 c -0.055,-0.0953 -0.17599,-0.12776 -0.27124,-0.0728 l -1.14942,0.66362 0.17816,0.30859 c 0.055,0.0952 0.0225,0.21625 -0.0727,0.27125 l -0.0164,0.009 c -0.0953,0.055 -0.2162,0.0226 -0.2712,-0.0727 l -0.17816,-0.30859 -1.20957,0.69834 c -0.0953,0.055 -0.12762,0.17604 -0.0726,0.27129 l 0.1482,0.2567 c 0.055,0.0953 0.17595,0.12767 0.2712,0.0727 l 1.02938,-0.59431 0.45677,0.79116 -0.84651,0.48873 c -0.19051,0.10999 -0.26653,0.33248 -0.17047,0.49886 l 0.0694,0.12013 -0.39043,0.22541 -0.0694,-0.12013 c -0.096,-0.16638 -0.32674,-0.21179 -0.51726,-0.1018 l -0.80821,0.46663 -0.43944,-0.76113 1.02929,-0.59425 c 0.0952,-0.055 0.12766,-0.17595 0.0727,-0.2712 l -0.1482,-0.2567 c -0.055,-0.0953 -0.176,-0.12776 -0.27125,-0.0728 l -1.14942,0.66362 0.17817,0.30859 c 0.055,0.0952 0.0225,0.21625 -0.0728,0.27125 l -0.0164,0.009 c -0.0953,0.055 -0.2162,0.0226 -0.2712,-0.0727 l -0.17816,-0.30859 -1.20957,0.69835 c -0.0953,0.055 -0.12761,0.17603 -0.0726,0.27128 l 0.14821,0.2567 c 0.055,0.0953 0.17594,0.12767 0.27119,0.0727 l 1.02938,-0.59431 0.43943,0.76113 -0.66631,0.38469 c -0.19052,0.11 -0.26653,0.33248 -0.17047,0.49886 l 0.0694,0.12013 -0.28735,0.16591 c -0.12072,-0.0719 -0.29927,-0.0675 -0.45821,0.0243 l -3.42781,1.97905 -0.0173,-0.03 c -0.0961,-0.16638 -0.3093,-0.22186 -0.47816,-0.12437 l -0.14563,0.0841 -1.59517,-2.76292 0.66063,-0.38141 0.0433,0.0751 c 0.0816,0.14142 0.30083,0.16669 0.49134,0.0567 l 2.49556,-1.44081 c 0.19051,-0.10999 0.27813,-0.31239 0.19648,-0.4538 l -0.0434,-0.0751 0.42224,-0.24377 c 0.0822,-0.0475 0.071,-0.21963 -0.025,-0.386 l -0.52013,-0.90089 c -0.0961,-0.16638 -0.23958,-0.26212 -0.32178,-0.21466 l -0.42783,0.24701 c -0.0977,-0.1033 -0.28987,-0.11295 -0.45965,-0.0149 l -2.49555,1.44081 c -0.16978,0.098 -0.25752,0.26929 -0.21689,0.40553 l -0.66632,0.3847 -0.20597,-0.35675 c -0.0684,-0.11847 -0.25743,-0.13654 -0.42381,-0.0405 z m -2.39661,2.21773 a 0.90161755,0.90161755 0 0 1 1.23162,0.32994 0.90161755,0.90161755 0 0 1 -0.33003,1.23167 0.90161755,0.90161755 0 0 1 -1.23167,-0.33003 0.90161755,0.90161755 0 0 1 0.33008,-1.23158 z m 5.8648,-2.85932 a 0.53945678,0.53945678 0 0 1 0.73693,0.19746 0.53945678,0.53945678 0 0 1 -0.19746,0.73693 0.53945678,0.53945678 0 0 1 -0.73693,-0.19746 0.53945678,0.53945678 0 0 1 0.19746,-0.73693 z m 1.40159,-0.80921 a 0.53945678,0.53945678 0 0 1 0.73693,0.19746 0.53945678,0.53945678 0 0 1 -0.19746,0.73693 0.53945678,0.53945678 0 0 1 -0.73693,-0.19746 0.53945678,0.53945678 0 0 1 0.19746,-0.73693 z m -5.15332,9.31768 a 0.53945678,0.53945678 0 0 1 0.73693,0.19746 0.53945678,0.53945678 0 0 1 -0.19746,0.73693 0.53945678,0.53945678 0 0 1 -0.73693,-0.19746 0.53945678,0.53945678 0 0 1 0.19746,-0.73693 z m 0.80529,2.0026 c -0.0953,0.055 -0.14532,0.14538 -0.11222,0.2027 l 2.23862,3.87741 c 0.0331,0.0573 0.13639,0.0592 0.23165,0.004 l 0.54876,-0.31682 -2.35805,-4.08426 z m 1.81013,-1.04508 2.35805,4.08427 0.54877,-0.31683 c 0.0953,-0.055 0.1454,-0.14542 0.11231,-0.20274 l -2.23863,-3.87742 c -0.0331,-0.0573 -0.13648,-0.0591 -0.23174,-0.004 z m 4.48377,-2.54866 c -0.0953,0.055 -0.14531,0.14537 -0.11222,0.20269 l 2.23863,3.87742 c 0.0331,0.0573 0.13639,0.0591 0.23164,0.004 l 0.54877,-0.31683 -2.35806,-4.08427 z m 1.81014,-1.04508 2.35805,4.08427 0.54876,-0.31683 c 0.0953,-0.055 0.14541,-0.14542 0.11231,-0.20274 l -2.23863,-3.87742 c -0.0331,-0.0573 -0.13647,-0.0591 -0.23173,-0.004 z m -0.84658,7.38148 a 0.68658138,0.68658138 0 0 1 0.93791,0.25131 0.68658138,0.68658138 0 0 1 -0.25132,0.93791 0.68658138,0.68658138 0 0 1 -0.93791,-0.25131 0.68658138,0.68658138 0 0 1 0.25132,-0.93791 z" fill="#000000" fill-opacity="1" stroke="none"/></g></svg>
