<svg xmlns:x="http://ns.adobe.com/Extensibility/1.0/" xmlns:i="http://ns.adobe.com/AdobeIllustrator/10.0/" xmlns:graph="http://ns.adobe.com/Graphs/1.0/" xmlns="http://www.w3.org/2000/svg" xmlns:xlink="http://www.w3.org/1999/xlink" version="1.1" x="0px" y="0px" viewBox="0 0 64 80" enable-background="new 0 0 64 64" xml:space="preserve"><g><path d="M44.729,29.171l3.535-3.535c0.188-0.188,0.293-0.442,0.293-0.707s-0.105-0.52-0.293-0.707l-8.486-8.485    c-0.391-0.391-1.023-0.391-1.414,0l-3.535,3.535l-4.243-4.243l-9.899,9.899l4.243,4.243l-4.95,4.95    c-0.391,0.391-0.391,1.023,0,1.414l3.535,3.536l-2.87,2.871c-1.589-1.275-3.548-1.972-5.615-1.972    c-2.404,0-4.664,0.937-6.364,2.637c-0.391,0.391-0.391,1.023,0,1.414l11.313,11.312c0.195,0.195,0.451,0.293,0.707,0.293    s0.512-0.098,0.707-0.293c1.7-1.699,2.636-3.959,2.636-6.363c0-2.067-0.696-4.025-1.971-5.614l2.87-2.871l3.536,3.536    c0.375,0.375,1.039,0.375,1.414,0l4.95-4.951l4.243,4.243l9.899-9.899L44.729,29.171z"/><path d="M19.272,23.515l9.899-9.899l-4.95-4.95c-0.391-0.391-1.023-0.391-1.414,0l-8.485,8.485c-0.391,0.391-0.391,1.023,0,1.414    L19.272,23.515z"/><path d="M55.334,39.779l-4.949-4.951l-9.899,9.899l4.95,4.95c0.195,0.195,0.451,0.293,0.707,0.293s0.512-0.098,0.707-0.293    l8.484-8.484C55.725,40.803,55.725,40.17,55.334,39.779z"/></g></svg>
